<?xml version="1.0" standalone="no"?>
<!DOCTYPE svg PUBLIC "-//W3C//DTD SVG 20010904//EN"
 "http://www.w3.org/TR/2001/REC-SVG-20010904/DTD/svg10.dtd">
<svg version="1.0" xmlns="http://www.w3.org/2000/svg"
 width="128.000000pt" height="128.000000pt" viewBox="0 0 128.000000 128.000000"
 preserveAspectRatio="xMidYMid meet">

<g transform="translate(0.000000,128.000000) scale(0.100000,-0.100000)"
fill="#000000" stroke="none">
<path d="M135 1256 c-60 -28 -87 -56 -114 -116 -20 -43 -21 -63 -21 -500 0
-437 1 -457 21 -500 27 -60 54 -88 114 -116 l50 -24 455 0 455 0 50 24 c60 28
87 56 114 116 20 43 21 64 21 500 l0 455 -24 50 c-28 60 -56 87 -116 114 -43
20 -64 21 -500 21 l-455 0 -50 -24z m974 -84 c19 -9 44 -30 55 -45 21 -28 21
-39 21 -487 0 -448 0 -459 -21 -487 -46 -63 -45 -63 -524 -63 -479 0 -478 0
-524 63 -21 28 -21 39 -21 487 0 448 0 459 21 487 46 63 45 63 524 63 394 0
438 -2 469 -18z"/>
<path d="M600 884 c-6 -14 -10 -63 -10 -110 l0 -84 -84 0 c-109 0 -136 -10
-136 -50 0 -40 27 -50 136 -50 l84 0 0 -84 c0 -109 10 -136 50 -136 40 0 50
27 50 136 l0 84 84 0 c109 0 136 10 136 50 0 40 -27 50 -136 50 l-84 0 0 84
c0 109 -10 136 -50 136 -24 0 -33 -6 -40 -26z"/>
</g>
</svg>
