<?xml version="1.0" standalone="no"?>
<!DOCTYPE svg PUBLIC "-//W3C//DTD SVG 20010904//EN"
 "http://www.w3.org/TR/2001/REC-SVG-20010904/DTD/svg10.dtd">
<svg version="1.0" xmlns="http://www.w3.org/2000/svg"
 width="128.000000pt" height="128.000000pt" viewBox="0 0 128.000000 128.000000"
 preserveAspectRatio="xMidYMid meet">

<g transform="translate(0.000000,128.000000) scale(0.100000,-0.100000)"
fill="#000000" stroke="none">
<path d="M440 1261 c-50 -26 -80 -74 -80 -127 l0 -44 -68 0 c-85 0 -147 -29
-174 -80 -17 -32 -18 -68 -18 -471 0 -586 -36 -539 410 -539 268 0 299 2 330
19 50 26 80 74 80 127 l0 44 68 0 c85 0 147 29 174 80 16 31 18 63 18 320 l0
285 -203 203 -202 202 -150 0 c-127 0 -156 -3 -185 -19z m310 -172 c0 -128 2
-145 22 -177 35 -57 81 -72 236 -72 l132 0 0 -250 c0 -269 -5 -301 -51 -334
-17 -11 -45 -16 -96 -16 l-73 0 0 222 0 223 -202 202 -203 203 -57 0 c-52 0
-58 2 -58 20 0 33 26 86 51 104 19 13 50 16 161 16 l138 0 0 -141z m234 -197
c-174 -4 -194 17 -194 205 l0 108 155 -155 155 -155 -116 -3z m-494 4 c0 -132
2 -146 23 -176 40 -60 74 -70 229 -70 l138 0 0 -250 c0 -269 -5 -301 -51 -334
-20 -14 -62 -16 -321 -16 l-298 0 -32 29 -33 29 -3 409 c-3 437 -1 467 45 502
23 19 40 21 164 21 l139 0 0 -144z m205 -46 l150 -150 -122 0 c-121 0 -123 0
-155 29 l-33 29 -3 121 c-2 67 0 121 5 121 4 0 76 -67 158 -150z"/>
</g>
</svg>
