<?xml version="1.0" standalone="no"?>
<!DOCTYPE svg PUBLIC "-//W3C//DTD SVG 20010904//EN"
 "http://www.w3.org/TR/2001/REC-SVG-20010904/DTD/svg10.dtd">
<svg version="1.0" xmlns="http://www.w3.org/2000/svg"
 width="128.000000pt" height="128.000000pt" viewBox="0 0 128.000000 128.000000"
 preserveAspectRatio="xMidYMid meet">

<g transform="translate(0.000000,128.000000) scale(0.100000,-0.100000)"
fill="#000000" stroke="none">
<path d="M1025 1251 c-16 -10 -159 -149 -317 -307 l-287 -289 -35 -131 c-40
-144 -43 -172 -22 -180 8 -3 78 13 157 34 l142 40 299 299 c316 315 328 331
314 405 -7 40 -65 112 -107 133 -39 21 -108 19 -144 -4z m139 -71 c44 -39 58
-77 41 -116 -6 -16 -20 -35 -29 -43 -15 -13 -25 -7 -92 60 l-75 74 31 28 c41
36 80 35 124 -3z m-281 -452 l-233 -233 -75 75 -75 75 232 232 233 233 75 -75
75 -75 -232 -232z m-303 -259 c0 -7 -59 -27 -132 -44 l-27 -7 20 69 c11 37 22
74 25 82 3 10 21 -2 59 -39 30 -30 55 -58 55 -61z"/>
<path d="M95 1136 c-41 -18 -83 -69 -90 -109 -3 -18 -5 -233 -3 -478 l3 -446
27 -35 c53 -69 55 -69 595 -66 471 3 482 3 510 24 15 11 38 36 50 54 22 31 23
43 23 205 0 182 -7 210 -43 182 -13 -10 -17 -39 -19 -180 l-3 -169 -28 -24
-28 -24 -480 0 c-325 0 -487 3 -501 11 -45 24 -48 52 -48 494 0 447 2 469 52
497 15 9 77 15 188 18 l165 5 0 25 0 25 -170 2 c-124 2 -178 -1 -200 -11z"/>
</g>
</svg>
