<?xml version="1.0" standalone="no"?>
<!DOCTYPE svg PUBLIC "-//W3C//DTD SVG 20010904//EN"
 "http://www.w3.org/TR/2001/REC-SVG-20010904/DTD/svg10.dtd">
<svg version="1.0" xmlns="http://www.w3.org/2000/svg"
 width="128.000000pt" height="128.000000pt" viewBox="0 0 128.000000 128.000000"
 preserveAspectRatio="xMidYMid meet">

<g transform="translate(0.000000,128.000000) scale(0.100000,-0.100000)"
fill="#000000" stroke="none">
<path d="M500 1261 c-16 -4 -26 -15 -28 -31 -8 -51 -46 -66 -79 -31 -18 19
-19 19 -68 -7 -47 -26 -50 -29 -47 -64 4 -43 -24 -66 -57 -48 -29 15 -33 13
-70 -31 -30 -36 -32 -43 -21 -63 6 -13 10 -34 8 -47 -2 -20 -10 -25 -40 -27
-32 -3 -38 -8 -52 -43 -21 -52 -20 -67 6 -88 30 -25 19 -65 -22 -79 -28 -10
-30 -14 -30 -62 0 -48 2 -52 30 -62 41 -14 52 -54 22 -79 -26 -21 -27 -36 -6
-88 14 -35 20 -40 52 -43 32 -3 37 -7 40 -31 2 -16 -2 -35 -8 -43 -13 -15 -8
-25 39 -84 17 -21 22 -23 46 -12 41 19 67 0 63 -46 -3 -35 0 -38 47 -64 49
-26 50 -26 68 -7 32 34 77 18 77 -27 0 -29 8 -34 68 -41 44 -5 50 -3 65 21 22
33 52 33 74 0 15 -24 21 -26 65 -21 60 7 68 12 68 41 0 45 45 61 77 27 18 -19
19 -19 68 7 47 26 50 29 47 64 -4 46 22 65 63 46 24 -11 29 -9 46 12 47 59 52
69 39 84 -6 8 -10 27 -8 43 3 24 8 28 40 31 32 3 38 8 52 43 21 52 20 67 -6
88 -30 25 -19 65 22 79 28 10 30 14 30 62 0 48 -2 52 -30 62 -41 14 -52 54
-22 79 26 21 27 36 6 88 -14 35 -20 40 -52 43 -32 3 -37 7 -40 31 -2 16 2 35
8 43 13 15 8 25 -39 84 -17 21 -22 23 -46 12 -41 -19 -67 0 -63 46 3 35 0 38
-47 64 -49 26 -50 26 -68 7 -32 -34 -77 -18 -77 27 0 29 -8 34 -68 41 -44 5
-50 3 -65 -21 -22 -33 -52 -33 -73 -1 -17 26 -50 31 -104 16z m140 -71 c12 0
34 12 48 28 38 38 88 34 97 -9 4 -19 17 -35 36 -45 26 -13 33 -13 63 1 31 15
37 15 63 1 25 -12 29 -20 25 -44 -6 -45 29 -76 79 -69 34 4 41 2 58 -22 13
-18 17 -32 10 -42 -26 -41 8 -103 61 -111 38 -5 49 -48 22 -83 -12 -15 -22
-35 -22 -45 0 -23 38 -70 56 -70 10 0 14 -12 14 -40 0 -28 -4 -40 -14 -40 -18
0 -56 -47 -56 -70 0 -10 10 -30 22 -45 27 -35 16 -78 -22 -83 -53 -8 -87 -70
-61 -111 7 -10 3 -24 -10 -42 -17 -24 -24 -26 -58 -22 -50 7 -85 -24 -79 -69
4 -24 0 -32 -25 -44 -26 -14 -32 -14 -63 1 -30 14 -37 14 -63 1 -19 -10 -32
-26 -36 -45 -9 -43 -59 -47 -97 -8 -33 34 -62 34 -97 0 -38 -39 -87 -35 -96 8
-4 19 -17 35 -36 45 -26 13 -33 13 -63 -1 -31 -15 -37 -15 -63 -1 -25 12 -29
20 -25 44 6 45 -29 76 -79 69 -34 -4 -41 -2 -58 22 -13 18 -17 32 -10 42 26
41 -8 103 -61 111 -38 5 -49 48 -22 83 12 15 22 35 22 45 0 23 -38 70 -56 70
-10 0 -14 12 -14 40 0 28 4 40 14 40 18 0 56 47 56 70 0 10 -10 30 -22 45 -27
35 -16 78 22 83 53 8 87 70 61 111 -7 10 -3 24 10 42 17 24 24 26 58 22 50 -7
85 24 79 69 -4 24 0 32 25 44 26 14 32 14 63 -1 30 -14 37 -14 63 -1 19 10 32
26 36 45 9 43 58 47 96 9 15 -16 37 -28 49 -28z"/>
<path d="M533 1090 c-13 -5 -23 -18 -23 -29 0 -26 -26 -34 -46 -14 -14 15 -19
14 -52 -5 -29 -16 -37 -27 -37 -49 0 -25 -3 -28 -33 -26 -26 1 -38 -6 -58 -33
-22 -28 -24 -37 -14 -49 17 -21 5 -45 -24 -45 -19 0 -27 -9 -40 -40 -15 -38
-15 -41 5 -61 16 -16 18 -23 8 -35 -6 -8 -18 -14 -25 -14 -10 0 -14 -14 -14
-50 0 -36 4 -50 14 -50 7 0 19 -6 25 -14 10 -12 8 -19 -8 -35 -20 -20 -20 -23
-5 -61 13 -31 21 -40 40 -40 29 0 41 -24 24 -45 -10 -12 -8 -21 14 -49 20 -27
32 -34 58 -33 30 2 33 -1 33 -26 0 -22 8 -33 37 -49 33 -19 38 -20 52 -5 20
20 46 12 46 -14 0 -40 81 -51 111 -16 l19 22 20 -24 c18 -21 25 -23 63 -15 32
7 43 14 45 31 4 28 27 36 48 16 14 -15 19 -14 52 5 29 16 37 27 37 49 0 25 3
28 33 26 26 -1 38 6 58 33 22 28 24 37 14 49 -17 21 -5 45 24 45 19 0 27 9 40
40 15 38 15 41 -5 61 -16 16 -18 23 -8 35 6 8 18 14 25 14 10 0 14 14 14 50 0
36 -4 50 -14 50 -7 0 -19 6 -25 14 -10 12 -8 19 8 35 20 20 20 23 5 61 -13 31
-21 40 -40 40 -29 0 -41 24 -24 45 10 12 8 21 -14 49 -20 27 -32 34 -58 33
-30 -2 -33 1 -33 26 0 22 -8 33 -37 49 -33 19 -38 20 -52 5 -20 -20 -46 -12
-46 14 0 40 -81 51 -111 17 l-19 -23 -19 23 c-20 23 -50 27 -88 12z m77 -42
l30 -22 30 22 c39 29 66 28 74 -3 7 -29 50 -44 78 -26 22 14 61 -6 53 -28 -3
-8 2 -25 10 -38 12 -18 24 -24 44 -21 39 4 62 -17 52 -45 -12 -31 4 -65 34
-73 34 -9 47 -34 29 -59 -22 -29 -17 -63 11 -81 14 -9 25 -24 25 -34 0 -10
-11 -25 -25 -34 -28 -18 -33 -52 -11 -81 18 -25 5 -50 -29 -59 -30 -8 -46 -42
-34 -73 10 -28 -13 -49 -52 -45 -20 3 -32 -3 -44 -21 -8 -13 -13 -30 -10 -38
8 -22 -31 -42 -53 -28 -28 18 -71 3 -78 -26 -8 -31 -35 -32 -74 -3 l-30 22
-30 -22 c-39 -29 -66 -28 -74 3 -7 29 -50 44 -78 26 -25 -15 -56 4 -55 36 0
33 -22 55 -53 51 -38 -4 -61 17 -51 45 12 31 -4 65 -34 73 -34 9 -47 34 -29
59 22 29 17 63 -11 81 -14 9 -25 24 -25 34 0 10 11 25 25 34 28 18 33 52 11
81 -18 25 -5 50 29 59 30 8 46 42 34 73 -10 28 13 49 51 45 31 -4 53 18 53 51
0 32 30 51 55 36 28 -18 71 -3 78 26 8 31 35 32 74 3z"/>
<path d="M573 923 c-7 -2 -13 -12 -13 -20 0 -11 -7 -14 -25 -9 -33 8 -65 -9
-65 -35 0 -14 -5 -19 -14 -16 -19 7 -58 -36 -51 -55 4 -10 -1 -17 -13 -20 -24
-7 -39 -57 -20 -70 10 -7 9 -11 -4 -19 -11 -6 -18 -22 -18 -39 0 -17 7 -33 18
-39 13 -8 14 -12 4 -19 -19 -13 -4 -63 20 -70 12 -3 17 -10 13 -20 -7 -19 32
-62 51 -55 9 3 14 -2 14 -16 0 -26 32 -43 65 -35 19 5 25 2 25 -10 0 -21 46
-32 65 -16 11 10 18 10 29 1 18 -15 66 -3 66 16 0 11 7 13 25 9 33 -8 65 9 65
35 0 14 5 19 14 16 19 -7 58 36 51 55 -4 10 1 17 13 20 24 7 39 57 20 70 -10
7 -9 11 5 19 10 6 17 22 17 39 0 17 -7 33 -17 39 -14 8 -15 12 -5 19 19 13 4
63 -20 70 -12 3 -17 10 -13 20 7 19 -32 62 -51 55 -9 -3 -14 2 -14 16 0 26
-32 43 -65 35 -19 -5 -25 -2 -25 10 0 21 -46 32 -66 16 -11 -10 -18 -10 -26
-2 -12 12 -34 14 -55 5z m47 -35 c15 -10 24 -9 45 2 23 12 27 12 41 -9 13 -18
22 -21 45 -16 25 6 29 4 29 -14 0 -21 30 -43 51 -39 8 2 13 -9 13 -27 1 -21 8
-33 24 -40 24 -11 28 -25 11 -42 -9 -9 -8 -18 5 -37 15 -24 15 -28 0 -52 -13
-19 -14 -28 -5 -37 17 -17 13 -31 -11 -42 -16 -7 -23 -19 -24 -40 0 -18 -5
-29 -13 -27 -21 4 -51 -18 -51 -39 0 -18 -4 -20 -29 -14 -23 5 -32 2 -45 -16
-14 -21 -18 -21 -41 -9 -21 11 -29 11 -50 0 -23 -12 -27 -12 -41 9 -13 18 -22
21 -45 16 -25 -6 -29 -4 -29 14 0 21 -30 43 -51 39 -8 -2 -13 9 -13 27 -1 21
-8 33 -23 40 -25 11 -29 25 -12 42 9 9 8 18 -5 37 -15 24 -15 28 0 52 13 19
14 28 5 37 -17 17 -13 31 12 42 15 7 22 19 23 40 0 18 5 29 13 27 21 -4 51 18
51 39 0 18 4 20 29 14 24 -5 33 -2 43 14 15 24 21 25 48 9z"/>
<path d="M595 765 c-68 -24 -103 -91 -83 -161 35 -130 221 -129 256 0 30 107
-68 197 -173 161z m95 -30 c32 -17 60 -61 60 -95 0 -53 -57 -110 -110 -110
-34 0 -78 28 -95 60 -19 37 -19 63 0 100 28 54 90 73 145 45z"/>
<path d="M595 685 c-14 -13 -25 -33 -25 -45 0 -27 43 -70 70 -70 27 0 70 43
70 70 0 12 -11 32 -25 45 -13 14 -33 25 -45 25 -11 0 -32 -11 -45 -25z m75
-20 c26 -32 -13 -81 -47 -59 -35 22 -23 74 17 74 10 0 23 -7 30 -15z"/>
</g>
</svg>
