<?xml version="1.0" standalone="no"?>
<!DOCTYPE svg PUBLIC "-//W3C//DTD SVG 20010904//EN"
 "http://www.w3.org/TR/2001/REC-SVG-20010904/DTD/svg10.dtd">
<svg version="1.0" xmlns="http://www.w3.org/2000/svg"
 width="128.000000pt" height="128.000000pt" viewBox="0 0 128.000000 128.000000"
 preserveAspectRatio="xMidYMid meet">

<g transform="translate(0.000000,128.000000) scale(0.100000,-0.100000)"
fill="#000000" stroke="none">
<path d="M515 1235 c-27 -8 -67 -22 -88 -31 -29 -13 -40 -15 -49 -6 -7 7 -26
12 -43 12 -43 0 -78 -38 -74 -79 3 -23 -4 -38 -30 -65 -30 -31 -32 -36 -17
-42 11 -4 27 2 45 20 22 21 33 25 60 20 25 -5 39 -2 62 15 33 25 39 24 140
-21 59 -26 68 -33 72 -61 4 -28 -4 -41 -62 -104 -46 -51 -73 -72 -90 -73 -14
0 -34 -8 -45 -19 -16 -14 -50 -21 -138 -30 -148 -15 -155 -11 -127 69 10 29
25 63 34 76 19 30 19 54 0 54 -15 0 -54 -68 -75 -133 -6 -21 -19 -41 -29 -44
-64 -23 -80 -88 -31 -133 23 -22 30 -37 30 -67 0 -103 70 -268 150 -356 36
-40 50 -63 50 -84 0 -48 36 -74 101 -72 37 1 73 -6 114 -22 53 -21 76 -24 195
-24 118 0 143 3 195 24 63 24 80 26 132 16 43 -9 83 29 83 78 0 23 8 41 26 58
39 36 99 128 127 195 64 151 61 334 -8 490 -17 38 -21 63 -18 96 5 40 2 47
-23 67 -20 16 -37 21 -55 17 -32 -6 -59 19 -59 56 0 14 -10 38 -21 53 -19 24
-27 26 -63 21 -23 -3 -45 -6 -51 -7 -5 0 -37 9 -70 22 -76 29 -271 37 -350 14z
m255 -29 c86 -16 153 -42 148 -58 -2 -6 -32 -21 -67 -34 -35 -13 -79 -33 -97
-44 -20 -13 -35 -17 -39 -10 -8 13 -82 13 -90 0 -4 -6 -29 2 -63 19 -31 15
-78 36 -104 46 -27 10 -48 21 -48 26 0 11 103 48 163 58 76 13 113 12 197 -3z
m258 -68 c-4 -26 -30 -43 -52 -35 -21 8 -21 53 1 66 25 13 55 -5 51 -31z
m-660 3 c5 -31 -11 -45 -42 -37 -19 5 -26 13 -26 30 0 30 9 38 40 34 18 -2 26
-10 28 -27z m579 -61 c28 -21 59 -25 83 -10 25 15 42 -9 35 -50 -5 -27 -1 -42
14 -62 20 -25 20 -26 2 -79 -10 -30 -35 -87 -55 -126 -45 -90 -64 -95 -100
-24 -26 49 -125 181 -164 215 -13 11 -22 31 -22 47 0 24 8 33 52 55 43 22 110
50 126 53 2 1 15 -8 29 -19z m-253 -56 c9 -8 16 -19 16 -24 0 -13 -30 -40 -44
-40 -31 0 -47 45 -24 68 16 16 33 15 52 -4z m477 -5 c9 -18 7 -25 -9 -41 -16
-16 -23 -18 -41 -9 -23 13 -28 40 -9 59 19 19 46 14 59 -9z m-403 -138 c69
-71 166 -221 143 -221 -5 0 -44 14 -87 31 -77 31 -250 79 -285 79 -10 0 -23 8
-28 18 -8 15 1 30 44 79 l54 60 57 0 c55 0 59 -2 102 -46z m425 -8 c14 -32 31
-86 38 -121 13 -69 7 -213 -11 -274 l-11 -38 -65 55 c-35 30 -73 61 -84 67
-11 7 -20 23 -20 36 0 13 -5 32 -10 42 -8 15 -4 31 19 72 25 43 56 119 86 206
10 27 34 9 58 -45z m-723 -97 c16 -21 9 -60 -13 -64 -40 -8 -64 47 -29 67 23
14 28 13 42 -3z m-372 -28 c19 -19 14 -56 -8 -63 -24 -8 -50 10 -50 34 0 19
19 41 35 41 6 0 16 -5 23 -12z m280 -32 c9 -20 7 -36 -14 -86 -39 -97 -56
-187 -58 -302 -1 -74 -5 -109 -13 -112 -14 -6 -74 60 -111 123 -36 61 -71 163
-81 235 -8 59 -7 61 20 87 16 15 29 34 29 42 0 11 15 17 58 22 31 4 62 8 67
10 6 2 28 4 51 4 34 1 43 -3 52 -23z m286 -11 c53 -14 125 -38 160 -54 57 -26
64 -32 68 -62 3 -19 2 -41 -2 -49 -17 -33 -183 -182 -251 -226 -39 -25 -107
-63 -152 -84 -68 -32 -84 -37 -97 -26 -8 7 -23 16 -34 20 -17 6 -18 15 -13
119 6 116 22 193 58 278 18 40 26 49 46 49 15 0 36 12 52 30 32 36 44 36 165
5z m324 -77 c17 -17 15 -43 -4 -59 -31 -26 -70 25 -44 56 15 18 32 19 48 3z
m116 -149 c42 -33 78 -65 81 -70 16 -25 -120 -210 -143 -195 -7 4 -12 32 -12
67 0 43 -4 59 -14 59 -9 0 -15 -17 -18 -54 -4 -46 -9 -58 -36 -81 -22 -18 -32
-36 -32 -55 0 -24 -7 -30 -53 -48 -131 -50 -280 -50 -411 -1 -79 29 -75 48 16
85 109 44 266 152 368 255 48 49 95 89 103 89 11 0 19 -18 27 -56 9 -43 15
-54 28 -51 9 2 16 7 16 13 -1 5 -5 30 -8 57 -5 29 -3 47 3 47 5 0 44 -27 85
-61z m-746 -301 c17 -17 15 -43 -4 -59 -31 -26 -70 25 -44 56 15 18 32 19 48
3z m682 -27 c0 -26 -25 -44 -50 -36 -25 8 -27 50 -3 64 23 12 53 -4 53 -28z"/>
</g>
</svg>
