<?xml version="1.0" standalone="no"?>
<!DOCTYPE svg PUBLIC "-//W3C//DTD SVG 20010904//EN"
 "http://www.w3.org/TR/2001/REC-SVG-20010904/DTD/svg10.dtd">
<svg version="1.0" xmlns="http://www.w3.org/2000/svg"
 width="128.000000pt" height="128.000000pt" viewBox="0 0 128.000000 128.000000"
 preserveAspectRatio="xMidYMid meet">

<g transform="translate(0.000000,128.000000) scale(0.100000,-0.100000)"
fill="#000000" stroke="none">
<path d="M235 1256 c-23 -23 -25 -33 -25 -106 0 -88 1 -89 73 -104 22 -5 27
-12 27 -36 0 -33 -10 -42 -60 -50 l-35 -5 0 -105 0 -105 100 -3 c113 -3 125 3
125 70 0 44 27 66 60 48 20 -11 27 -30 32 -85 l3 -30 90 -5 90 -5 0 -75 0 -75
-39 -6 c-101 -16 -101 -142 0 -158 l39 -6 5 -90 5 -90 155 -3 c170 -3 189 0
170 23 -10 12 -41 15 -156 15 l-144 0 0 89 c0 96 -3 101 -59 101 -33 0 -51 16
-51 47 0 27 27 43 74 43 l35 0 3 93 3 92 72 3 71 3 7 -41 c18 -104 147 -107
164 -4 l6 39 73 3 72 3 0 -223 c0 -123 -4 -228 -8 -235 -4 -6 -27 -13 -52 -15
-33 -2 -46 -8 -48 -21 -3 -14 4 -17 48 -17 41 0 56 5 75 25 l25 24 0 476 0
476 -25 24 -24 25 -381 0 c-358 0 -381 -1 -378 -17 3 -16 19 -18 135 -21 l132
-3 3 -92 3 -92 35 -3 c43 -4 60 -18 60 -48 0 -27 -26 -44 -69 -44 l-30 0 -3
-92 -3 -93 -75 0 -75 0 -3 40 c-5 54 -35 85 -83 85 -48 0 -79 -36 -79 -91 l0
-39 -75 0 -75 0 0 75 c0 73 1 75 28 81 70 17 96 91 47 139 -13 14 -36 25 -50
25 -24 0 -25 2 -25 70 0 79 -1 77 95 82 37 2 50 7 50 18 0 12 -15 16 -67 18
-61 3 -71 0 -93 -22z m973 -28 c9 -9 12 -75 12 -235 l0 -222 -92 -3 -93 -3 -3
-40 c-4 -48 -17 -65 -48 -65 -28 0 -44 26 -44 74 l0 35 -92 3 -93 3 -3 72 -3
72 36 7 c38 7 75 44 75 76 0 46 -39 87 -82 88 l-28 0 0 75 0 75 223 0 c160 0
226 -3 235 -12z"/>
<path d="M235 650 c-10 -12 -21 -40 -24 -63 l-6 -42 -90 -5 -90 -5 -3 -85 c-4
-113 1 -130 37 -130 40 0 60 -9 72 -31 15 -30 -6 -59 -42 -59 -61 0 -69 -12
-69 -101 0 -72 3 -82 25 -105 l24 -24 243 2 243 3 3 99 c3 110 -3 126 -52 126
-38 0 -56 15 -56 46 0 28 13 37 65 44 l40 5 0 105 0 105 -87 3 c-84 3 -88 4
-88 26 0 37 -20 86 -40 96 -32 17 -85 12 -105 -10z m87 -27 c13 -11 18 -30 18
-64 l0 -48 93 -3 92 -3 3 -70 3 -70 -48 -15 c-31 -10 -53 -24 -62 -41 -28 -51
14 -119 76 -119 l33 0 0 -75 0 -75 -223 0 c-160 0 -226 3 -235 12 -7 7 -12 39
-12 75 l0 63 30 0 c42 0 80 39 80 83 0 40 -30 72 -77 82 l-33 7 0 73 0 74 92
3 93 3 3 50 c4 68 35 93 74 58z"/>
</g>
</svg>
